<?xml version="1.0" standalone="no"?>
<!DOCTYPE svg PUBLIC "-//W3C//DTD SVG 20010904//EN"
 "http://www.w3.org/TR/2001/REC-SVG-20010904/DTD/svg10.dtd">
<svg version="1.0" xmlns="http://www.w3.org/2000/svg"
 width="512.000000pt" height="512.000000pt" viewBox="0 0 512.000000 512.000000"
 preserveAspectRatio="xMidYMid meet">

<g transform="translate(0.000000,512.000000) scale(0.100000,-0.100000)"
fill="#000000" stroke="none">
<path d="M69 4357 c-19 -12 -42 -38 -52 -57 -16 -33 -17 -119 -15 -1462 3
-1423 3 -1427 24 -1454 11 -15 33 -37 48 -48 27 -21 36 -21 992 -24 l964 -2 0
-135 0 -134 -229 -3 c-261 -3 -266 -5 -309 -89 -37 -71 -13 -148 58 -188 38
-21 42 -21 1010 -21 872 0 975 2 1006 16 37 18 68 62 79 111 9 44 -23 113 -66
144 -33 23 -40 24 -261 27 l-228 3 0 134 0 135 964 2 c956 3 965 3 992 24 15
11 37 33 48 48 21 27 21 31 24 1454 2 1375 2 1428 -16 1462 -11 19 -34 45 -52
58 l-33 22 -2457 0 -2457 0 -34 -23z m4751 -1512 l0 -1235 -2260 0 -2260 0 0
1235 0 1235 2260 0 2260 0 0 -1235z m-2030 -1670 l0 -135 -230 0 -230 0 0 135
0 135 230 0 230 0 0 -135z"/>
</g>
</svg>
